<svg version="1.1" id="Capa_1" xmlns="http://www.w3.org/2000/svg" x="0" y="0" viewBox="0 0 1442 406.4" xml:space="preserve"><style>.st0{fill:#e9505b}</style><path class="st0" d="M54.6 198.2c0-2.9-2.4-5.2-5.2-5.2H5.2c-2.9 0-5.2 2.4-5.2 5.2s2.4 5.2 5.2 5.2h44.1c3 .1 5.3-2.3 5.3-5.2z"/><path class="st0" d="M568.5 315.2c0-37.9-30.7-68.6-68.6-68.6-1.6 0-3.2.1-4.8.2l-35-75.9c-.9-2-2.2-3.9-3.8-5.5-1.9-3.6-5.7-5.9-9.8-5.9h-2.6c-1.2-.1-2.4-.1-3.6 0h-19l-1.7-13.2c0-8.5-6.9-15.4-15.4-15.5h-45.4c9.5-13.9 17.5-24.5 20.3-25.5h.8c24.1-.1 45.1-16.5 51.1-39.8h15.2a42.79 42.79 0 00-15.4-26.8C424.4 15.9 403.6 0 379.9 0c-29.1-.1-52.7 23.4-52.8 52.5 0 15.5 6.8 30.3 18.7 40.4-68 1.2-105.9 30.5-116.9 40.5-4.5 2.8-7.2 7.8-7.2 13.1v1.1c0 8.5 6.9 15.4 15.4 15.5l15.5.1c-12.9 16.5-24.2 34.3-33.5 53.1h-19c.5-1 .9-2.1 1.1-3.2l19.2-110.7c1-5.7-3.2-10.5-9.4-10.5l-104.9-.7c-6.1 0-12 4.6-13 10.4L73.9 212.1c-.2 1.3-.2 2.7.2 4H44.2c-3.8 0-7 3.1-7 6.9v.7c0 3.9 3.1 7 7 7h366.5c-48.4-39-96.9-29.7-96.9-29.7s10.7-17.6 23.6-37.8l21.5.1c-4.1 4.6-3.7 11.6.9 15.7 2.1 1.8 4.7 2.8 7.5 2.8h55.2c.3 1.9.8 3.8 1.6 5.5l22.4 48.5-8.6 8.6h-76.4c-2.6-.1-4.8 1.9-4.9 4.5-.1 2.6 1.9 4.8 4.5 4.9h70.6c1.7.4 2.9 2 2.9 3.7v.5c0 1.1-.5 2.1-1.3 2.9h-130c-3.6-.1-6.7 2.7-6.9 6.3-.1 3.6 2.7 6.7 6.3 6.9H408l-.4.4h.5c2.4 0 4.4 2 4.4 4.4v.5c0 2.4-2 4.4-4.4 4.4h-3.7c-.5-.1-1-.2-1.5-.2H266c-3.6.1-6.5 3.2-6.3 6.9.1 3.4 2.9 6.2 6.3 6.3h129.8c1.6 1.2 2.6 3.1 2.6 5.1v.1c0 3.6-2.9 6.5-6.5 6.5l-154.8-1.4c-4.1 0-7.5 3.3-7.5 7.5v2c0 4.1 3.3 7.5 7.5 7.5h135.4c.8 0 1.6-.2 2.4-.4 1.9.5 3.2 2.3 3.2 4.2v.5c0 1.5-.8 3-2.1 3.8H217.6c-.7 4.4-1.9 8.7-3.4 12.9-1.3 3.6-2.9 7.1-4.8 10.5h59.9l-.3.3h139.4c-5.1 27.8 12.2 49.5 42.2 50.3 33.6.9 70.5-24.7 82.3-57.2 4.1-11.1 4.7-21.6 2.3-30.6h32.9c.2-1 .4-2 .4-3.2zm-75.4 32.9c-4.1 11.2-16.8 20-28.4 19.7s-17.7-9.6-13.6-20.9 16.8-20 28.4-19.7c11.7.3 17.7 9.7 13.6 20.9z"/><path class="st0" d="M501.2 225.6c1.1 0 2.2-.1 3.3-.3v-41.5c-1.1-.2-2.2-.3-3.3-.3-10.9 0-19.8 8.9-19.8 19.8v2.7c0 10.7 8.9 19.5 19.8 19.6zm-222.6 48.7c3.6 0 6.4-2.9 6.4-6.4 0-3.5-2.9-6.4-6.4-6.4h-48c-3.5 0-6.4 2.9-6.4 6.4 0 3.5 2.9 6.4 6.4 6.4h48zm52.4-23.2c2.2-.3 3.7-2.3 3.4-4.5-.3-1.8-1.6-3.1-3.4-3.4h-20.3c-2.2.3-3.7 2.3-3.4 4.5.3 1.8 1.6 3.1 3.4 3.4H331zM44.8 168.8h20.3c2.2.3 4.2-1.2 4.6-3.4.3-2.2-1.2-4.2-3.4-4.6-.4-.1-.8-.1-1.2 0H44.8c-2.2-.3-4.2 1.2-4.6 3.4-.3 2.2 1.2 4.2 3.4 4.6.4.1.8.1 1.2 0zM87 318.9c0-2.2-1.8-4-4-4H62.8c-2.2.3-3.7 2.3-3.4 4.5.3 1.8 1.6 3.1 3.4 3.4H83c2.2 0 3.9-1.7 4-3.9zM238.2 97.6h45.4c2.7 0 4.9-2.2 4.9-4.9s-2.2-4.9-4.9-4.9h-45.4c-2.7 0-4.9 2.2-4.9 4.9s2.2 4.9 4.9 4.9zm-35.3 175.8c2.7-.1 4.8-2.4 4.7-5.2-.1-2.6-2.2-4.6-4.7-4.7h-43.5c-2.7-.1-5 2-5.2 4.7-.1 2.7 2 5 4.7 5.2h44zm-105 27c0-2.7-2.2-4.9-4.9-5H49.5c-2.7.4-4.6 2.9-4.2 5.7.3 2.2 2 3.9 4.2 4.2H93c2.7 0 4.9-2.2 4.9-4.9zm67.5-15.9c-33.6-.9-70.5 24.7-82.3 57.2s5.8 59.6 39.4 60.5 70.5-24.7 82.3-57.2-5.8-59.6-39.4-60.5zM162 345c-4.1 11.2-16.8 20-28.4 19.7s-17.7-9.6-13.6-20.9 16.8-20 28.4-19.7S166 333.8 162 345z"/><path d="M663.6 36.4c10.8-1.6 23.7-2.9 37.7-2.9 25.5 0 43.7 5.9 55.7 17.1 12.2 11.2 19.4 27.1 19.4 49.4 0 22.4-6.9 40.8-19.8 53.4-12.9 12.9-34.1 19.8-60.8 19.8-12.6 0-23.3-.6-32.2-1.6V36.4zm17.7 121.5c4.5.8 11 1 18 1 37.9 0 58.5-21.2 58.5-58.3.2-32.4-18.2-53-55.7-53-9.2 0-16.1.8-20.8 1.8v108.5zm138.9-32c.4 24.3 15.9 34.3 33.9 34.3 12.9 0 20.6-2.2 27.3-5.1l3.1 12.9c-6.3 2.9-17.1 6.1-32.8 6.1-30.4 0-48.6-20-48.6-49.8S820.6 71 849.4 71c32.2 0 40.8 28.4 40.8 46.5 0 3.7-.4 6.5-.6 8.4h-69.4zm52.7-12.8c.2-11.4-4.7-29.2-24.9-29.2-18.2 0-26.1 16.7-27.5 29.2h52.4zM923 27.2h18V172h-18V27.2zm78.8 18.3c.2 6.1-4.3 11-11.4 11-6.3 0-10.8-4.9-10.8-11 0-6.3 4.7-11.2 11.2-11.2 6.7 0 11 4.9 11 11.2zm-20 126.5V73.3h18V172h-18zm65.3-98.7l19.4 55.5c3.3 9 5.9 17.1 8 25.3h.6c2.2-8.2 5.1-16.3 8.4-25.3l19.2-55.5h18.8l-38.8 98.7h-17.1l-37.5-98.7h19zm109.7 52.6c.4 24.3 15.9 34.3 33.9 34.3 12.9 0 20.6-2.2 27.3-5.1l3.1 12.9c-6.3 2.9-17.1 6.1-32.8 6.1-30.4 0-48.6-20-48.6-49.8S1157.2 71 1186 71c32.2 0 40.8 28.4 40.8 46.5 0 3.7-.4 6.5-.6 8.4h-69.4zm52.7-12.8c.2-11.4-4.7-29.2-24.9-29.2-18.2 0-26.1 16.7-27.5 29.2h52.4zm50.1-9c0-11.6-.2-21.6-.8-30.8h15.7l.6 19.4h.8c4.5-13.3 15.3-21.6 27.3-21.6 2 0 3.5.2 5.1.6v16.9c-1.8-.4-3.7-.6-6.1-.6-12.6 0-21.6 9.6-24.1 23.1-.4 2.4-.8 5.3-.8 8.4V172h-17.7v-67.9zm89-30.8l21.6 58.3c2.2 6.5 4.7 14.3 6.3 20.2h.4c1.8-5.9 3.9-13.5 6.3-20.6l19.6-57.9h19l-26.9 70.4c-12.9 33.9-21.6 51.2-33.9 61.8-8.8 7.8-17.5 10.8-22 11.6l-4.5-15.1c4.5-1.4 10.4-4.3 15.7-8.8 4.9-3.9 11-10.8 15.1-20 .8-1.8 1.4-3.3 1.4-4.3s-.4-2.4-1.2-4.7l-36.5-91h19.6zM878.2 297.5l-14.3 43.2h-18.4l46.7-137.5h21.4l46.9 137.5h-19l-14.7-43.2h-48.6zm45.1-13.9L909.8 244c-3.1-9-5.1-17.1-7.1-25.1h-.4c-2 8.2-4.3 16.5-6.9 24.9l-13.5 39.8h41.4zm66.9-9.4c0-12.6-.4-22.8-.8-32.2h16.1l.8 16.9h.4c7.3-12 19-19.2 35.1-19.2 23.9 0 41.8 20.2 41.8 50.2 0 35.5-21.6 53-44.9 53-13.1 0-24.5-5.7-30.4-15.5h-.4v53.7h-17.7V274.2zm17.7 26.3c0 2.7.4 5.1.8 7.3 3.3 12.4 14.1 21 26.9 21 19 0 30-15.5 30-38.1 0-19.8-10.4-36.7-29.4-36.7-12.2 0-23.7 8.8-27.1 22.2-.6 2.2-1.2 4.9-1.2 7.3v17zm108.9-26.3c0-12.6-.4-22.8-.8-32.2h16.1l.8 16.9h.4c7.3-12 19-19.2 35.1-19.2 23.9 0 41.8 20.2 41.8 50.2 0 35.5-21.6 53-44.9 53-13.1 0-24.5-5.7-30.4-15.5h-.4v53.7h-17.7V274.2zm17.8 26.3c0 2.7.4 5.1.8 7.3 3.3 12.4 14.1 21 26.9 21 19 0 30-15.5 30-38.1 0-19.8-10.4-36.7-29.4-36.7-12.2 0-23.7 8.8-27.1 22.2-.6 2.2-1.2 4.9-1.2 7.3v17z" stroke="#000" stroke-width="17" stroke-miterlimit="10"/></svg>